HIERARCHY
ROOT Hips
{
  OFFSET 0.0 0.0 0.0
  CHANNELS 6 XPOSITION YPOSITION ZPOSITION ZROTATION XROTATION YROTATION 
  JOINT RightUpLeg
  {
    OFFSET -0.089458038 -0.086670642 0.001016508
    CHANNELS 3 ZROTATION XROTATION YROTATION 
    JOINT RightLeg
    {
      OFFSET 1.524e-006 -0.44256706 0.04075049
      CHANNELS 3 ZROTATION XROTATION YROTATION 
      JOINT RightFoot
      {
        OFFSET 0.001563116 -0.419119812 -0.0416306
        CHANNELS 3 ZROTATION XROTATION YROTATION 
        End Site
        {
          OFFSET 7.5692e-005 -0.04415155 0.084991702
        }
      }
    }
  }
  JOINT Spine
  {
    OFFSET 0.0 0.11890502 0.0
    CHANNELS 3 ZROTATION XROTATION YROTATION 
    JOINT Spine1
    {
      OFFSET 0.0 0.256575052 0.001270508
      CHANNELS 3 ZROTATION XROTATION YROTATION 
      End Site
      {
        OFFSET -0.0029 0.2150836 0.02525291
      }
      JOINT RightArm
      {
        OFFSET -0.16272758 -0.05365633 0.001021842
        CHANNELS 3 ZROTATION XROTATION YROTATION 
        JOINT RightForeArm
        {
          OFFSET -0.263648698 -0.000263906 -0.014099794
          CHANNELS 3 ZROTATION XROTATION YROTATION 
          End Site
          {
            OFFSET -0.220319092 0.001914652 0.010174732
          }
        }
      }
      JOINT LeftArm
      {
        OFFSET 0.16272758 -0.05365633 0.001020826
        CHANNELS 3 ZROTATION XROTATION YROTATION 
        JOINT LeftForeArm
        {
          OFFSET 0.26260552 -0.000263144 -0.01410081
          CHANNELS 3 ZROTATION XROTATION YROTATION 
          End Site
          {
            OFFSET 0.220897958 0.001915922 0.01017524
          }
        }
      }
    }
  }
  JOINT LeftUpLeg
  {
    OFFSET 0.089458038 -0.086670642 0.001016508
    CHANNELS 3 ZROTATION XROTATION YROTATION 
    JOINT LeftLeg
    {
      OFFSET -3.048e-006 -0.442569346 0.040725598
      CHANNELS 3 ZROTATION XROTATION YROTATION 
      JOINT LeftFoot
      {
        OFFSET -0.002532888 -0.41911778 -0.041605708
        CHANNELS 3 ZROTATION XROTATION YROTATION 
        End Site
        {
          OFFSET -0.00040005 -0.044151042 0.084991194
        }
      }
    }
  }
}
MOTION
Frames: 16
Frame Time: 0.033333
1.90749428 0.99022586147 0.49153826 2.40240186012 -0.275012657732 -92.3322525588 -1.82352134329 -0.718957024536 -6.56361883954 3.86451847107 2.44057365296 -5.18781853078 -3.58993846314 -32.3208820393 0.278794768263 -1.06235353624 -1.7074873149 -0.904501674661 2.63982926751 3.73379761498 -1.45589100025 12.661700523 -15.3999950782 -1.56621765853 4.44464699153 -3.79430156508 2.24211717054 -47.7478614874 -2.8192002804 9.48866954971 25.0138193067 17.9844191319 -54.6952430432 1.11342616904 -0.0116632842208 4.54029994887 -3.79430327263 0.600130996246 14.401706582 2.84186519594 -31.9877088267 -0.214699752824 
1.90728092 0.99022586147 0.49146968 2.39560582189 -0.260612164362 -92.3715329768 -1.81337595105 -0.736045624231 -6.56274372155 3.87477485388 2.51899084137 -5.12786825289 -3.56699457705 -32.3196867562 0.277016090954 -1.01449376039 -1.70588648932 -0.906701849347 2.5411945057 3.75982960034 -1.43158182338 12.7500541425 -15.4193279287 -1.59184271402 4.43929767275 -3.8050697852 2.21247969907 -47.6068385716 -3.75938307673 9.50763869258 24.0578028513 17.8168899594 -53.7931628841 1.13688018487 0.0504400765716 4.55650158447 -3.80192789818 0.519308407302 14.420105404 2.79210086454 -31.9618155796 -0.210631641461 
1.90683388 0.99022586147 0.49132236 2.42803278531 -0.23693379282 -92.402050262 -1.78632584062 -0.743408194631 -6.55535431064 3.89228404382 2.52107853138 -5.10355277944 -3.55222386609 -32.320291228 0.27583460163 -1.02777922538 -1.76467029897 -0.924738564676 2.52524003758 3.81168695784 -1.44740246249 12.822905794 -15.4812845746 -1.59922721573 4.39803265799 -3.666884813 2.12445136727 -47.4667889578 -4.99207256624 9.56048386619 22.8083478087 17.5230244855 -52.6608233876 1.17048983823 0.0576158539703 4.57480222258 -3.7972069568 0.495817785921 14.4438522642 2.77372936322 -31.9665181648 -0.209227930865 
1.90622174 0.99021570147 0.49116488 2.47631283123 -0.224939953957 -92.3874336572 -1.75691323178 -0.705084109919 -6.53859729529 3.89532390489 2.41599735166 -5.15569529734 -3.57253364703 -32.3384868519 0.277547058121 -1.14155139393 -1.90273019332 -0.965232194944 2.64204779833 3.89314891653 -1.51148874009 12.8541837915 -15.5444450414 -1.56163929735 4.35759708433 -3.62755615688 2.01744386076 -47.3084378521 -6.0584230438 9.49919828632 21.4849610909 17.1339888632 -51.4997561155 1.18823733774 0.0356853638554 4.58640073756 -3.78943548219 0.5181446071 14.4208020833 2.78556672138 -32.0274161314 -0.210310555869 
1.9056223 0.99016236147 0.49111916 2.48533124226 -0.226961823354 -92.3569027116 -1.75591751827 -0.628967788118 -6.55009634564 3.90585861791 2.32248010909 -5.18176826383 -3.59742904622 -32.3699808542 0.279182915107 -1.26552071475 -2.00440801784 -0.978298666992 2.77632760986 3.95185866131 -1.54968561253 12.8898237186 -15.5577212216 -1.60854551475 4.38658227273 -4.15454153672 2.05279649302 -47.0992906295 -7.00164356677 9.33008365624 20.1116952092 16.670522962 -50.2979809159 1.19866810382 0.0796406927433 4.61730435535 -3.81936964 0.48934543463 14.3482347385 2.75087448304 -32.0814190221 -0.207720193286 
1.90526162 0.99005314147 0.49131982 2.46035302702 -0.229559803198 -92.3193708221 -1.81065177279 -0.582372344321 -6.63594413955 3.9761045522 2.35646819762 -5.12064191274 -3.5909245717 -32.4602896154 0.274958816632 -1.27518959457 -1.95002285002 -0.966459708004 2.81288192853 3.89888926364 -1.54357334027 12.9220972162 -15.5561588159 -1.7927799425 4.45098498019 -4.86517149344 2.27781109881 -46.9189087486 -8.00728348101 9.1999540384 18.7823081703 16.1637451237 -49.1350148512 1.21749850847 0.113519571615 4.68420904648 -3.89788010319 0.52288011599 14.259006001 2.73079223277 -32.1344247052 -0.205124694721 
1.90513462 0.98972040147 0.49169828 2.4484509955 -0.229803395492 -92.268096592 -1.90452098354 -0.676472020599 -6.75477278252 4.07447122908 2.65487361293 -5.04893303731 -3.53679169399 -32.7566242027 0.258390378531 -1.16837984339 -1.79073045886 -0.994485681716 2.73708539832 3.74221795757 -1.5591251474 12.9919359005 -15.6254254718 -1.90232657183 4.45132051324 -4.96860318248 2.5490848683 -46.8086148539 -9.07879075139 9.12272935832 17.4866981244 15.6045404609 -48.0176846955 1.24561626285 -0.0157450751382 4.77880033629 -3.99850757268 0.839931894373 14.1474519363 2.80066698897 -32.322026096 -0.204483524053 
1.90502286 0.98902444147 0.49189894 2.44581838447 -0.26343866206 -92.2536644023 -1.99328462789 -0.992915378537 -6.77682234071 4.06227635321 3.38572285058 -5.05274214843 -3.39252849376 -33.3969920034 0.22158975951 -1.14243216817 -1.62151454988 -1.07533068222 2.65149138863 3.56256498593 -1.62804698549 13.3959740333 -15.7708845954 -1.7422806187 4.44651760959 -5.11542450199 2.88911687151 -46.6892333925 -10.0925871922 8.97609544213 16.1513295473 14.9623985185 -46.8772445947 1.26404859554 -0.273204125025 4.88475578023 -4.1040553397 1.41621944728 14.0225713189 2.82163993859 -32.6912422169 -0.192848590287 
1.90485014 0.98813544147 0.49158652 2.38324275261 -0.38392391939 -92.314999501 -2.06050670937 -1.42874622766 -6.71129606713 3.84937636857 4.46831231634 -5.05670920768 -3.12452232946 -34.2958756341 0.168736835237 -1.41812080119 -1.33502866845 -1.1553136915 2.69748972448 3.35649476358 -1.71754722306 14.6210990883 -15.8302713827 -1.46531772852 4.67228268241 -6.89278443866 3.694438223 -46.5736221955 -11.106285449 8.77944917328 14.7925607421 14.2365816361 -45.7324195124 1.22574244008 -0.421409945226 4.96953464953 -4.20365700016 1.92727874697 13.9729645087 2.67591038213 -33.0464769405 -0.168689157315 
1.90464948 0.98732010147 0.4907661 2.19703472036 -0.58320375977 -92.350673579 -2.11713111203 -1.74261166943 -6.84117894439 3.50707161992 5.57542792419 -4.86989414237 -2.83173068932 -35.2054314353 0.118591574043 -1.92710649814 -0.777822743094 -1.22311271053 2.90241503638 3.10712754519 -1.82428269594 16.9854937205 -15.4691883096 -1.39278762956 5.25901770335 -9.81554362037 5.3342052795 -46.9553307324 -11.6247642551 8.6077493166 14.2461054812 13.8809080729 -45.3488599943 1.10672425936 -0.333129323317 4.99648486844 -4.2674091321 2.22291259958 14.000750572 2.53533847227 -33.2566999179 -0.150916911713 
1.90420244 0.98673336147 0.48965358 1.9020584869 -0.773772334194 -92.212457871 -2.17389147813 -1.75810638045 -7.13027395808 3.23320878184 6.39094226581 -4.69715524316 -2.70077611269 -35.924257619 0.0873062393952 -2.30717258795 -0.125967244532 -1.30640313219 3.09561205969 3.01674685355 -1.95470985389 20.4649508856 -14.3968776382 -1.66417665849 5.92263290669 -11.212304499 7.622527826 -45.5817967657 -18.7029379571 8.34827128381 5.7913643548 7.34292720214 -37.9545074441 0.972910928397 -0.074616474959 4.98690424747 -4.29321572121 2.40685983921 13.8927012482 2.53326828462 -33.4161062878 -0.145322920082 
1.90310008 0.98633458147 0.48829976 1.60095055784 -0.910832192804 -91.8931601877 -2.21995256635 -1.53370126232 -7.40676812654 3.10761099452 6.88037142362 -4.72419809652 -2.76150076328 -36.4273693533 0.0725817322568 -2.29568826519 0.209940191529 -1.36750920616 3.03827112751 3.39648424051 -2.02415708294 24.927680376 -12.5941328766 -2.23957249818 6.18602250344 -10.2158063661 9.93546893559 -38.8209647517 -42.6764426136 9.04210409781 -7.72785958829 -25.8592771977 -18.938475323 0.907766398362 0.238190627669 4.99874309974 -4.32927783937 2.55094993683 13.5058367723 2.46597683403 -33.5920178099 -0.134694185238 
1.90121032 0.98601454147 0.48663098 1.39158711709 -1.04097184249 -91.4763820445 -2.25650133548 -1.26299792035 -7.60425877752 3.04714418357 7.18644586071 -4.92528612276 -2.83956363563 -36.8046724181 0.0623218342982 -1.96357757387 0.0949740005225 -1.34050189113 2.67256956585 4.24706840186 -1.94193462538 30.3554097283 -10.2559004303 -3.00677221604 6.15226856234 -9.056553363 11.8262215384 -39.1012039982 -49.4772483098 11.3039792981 -2.10644122565 -4.48980436034 -22.7577378144 0.882977934317 0.516223082788 5.00650390218 -4.36717727842 2.63648354203 13.0337392195 2.24133810208 -33.7018370065 -0.115273262705 
1.8985992 0.98567164147 0.48465994 1.29081781445 -1.18539000263 -90.9842464243 -2.28287418997 -1.02727592582 -7.73225054615 3.00395732433 7.40340425837 -5.28004059872 -2.84655305359 -37.139877612 0.0504287807461 -1.49628847426 -0.20275032353 -1.2682079673 2.20174520301 5.18869279499 -1.78571976805 36.6383060854 -8.05208013045 -3.75943387626 6.08375365412 -8.68681302511 13.129761434 -24.1585276509 -69.7038016877 27.1460711769 25.5624696198 37.7990762443 -35.9274814683 0.821321709958 0.693537248241 4.9182612732 -4.30462427156 2.76617880253 12.6784182648 2.10654431881 -33.8072473159 -0.10398188612 
1.89518544 0.98526524147 0.4824476 1.22811763836 -1.2731055331 -90.4394363851 -2.2454957663 -0.731818804352 -7.82704247277 3.01027482243 7.52826438527 -5.73519885549 -2.91485046298 -37.4607838049 0.0406918991871 -0.908792527563 -0.428901488807 -1.22783439895 1.7959271656 5.89930098048 -1.67326401174 43.5283516182 -6.26448814352 -4.34527713062 5.74799051914 -7.81454664168 13.9569007576 -38.6281792472 -66.2562705343 17.3814739376 22.5252928166 32.557725679 -35.6261984089 0.775063666834 0.788874309336 4.75635206581 -4.11597017782 3.08703120766 12.2990260158 2.00431751784 -34.1281535088 -0.0960394700124 
1.89093094 0.98472676147 0.47990252 1.14966619228 -1.30235432412 -89.9589803883 -2.13920414899 -0.353001091697 -7.91935162563 3.05676023615 7.64677243623 -6.11437808792 -3.12365574921 -37.8277869444 0.0320310859174 -0.268114326753 -0.626954376416 -1.23487397611 1.56488843968 6.50342950502 -1.64871225644 50.7584107981 -4.78402415035 -4.61158449881 5.23522175116 -6.49605973091 14.4510803119 -49.4524478929 -64.9235093819 10.9206707894 19.8737809374 30.019251723 -33.9424167596 0.842287882749 0.873209429783 4.65594188171 -3.9441811018 3.58741086626 11.7887306301 1.51264058746 -34.6480777537 -0.0560377601069 
